<svg viewBox="0 0 24 24" xmlns="http://www.w3.org/2000/svg" style="fill:#008899;">
  <path id="CircleX-1"
    d="M4.136,18.175c-1.338,-1.701 -2.136,-3.845 -2.136,-6.175c-0,-4.292 2.71,-7.956 6.511,-9.373l5.85,11.733l-6.41,0l-3.815,3.815Z" />
  <path id="CircleX-2"
    d="M17.385,20.426c-1.555,0.996 -3.403,1.574 -5.385,1.574c-1.541,-0 -3.001,-0.349 -4.306,-0.973l6.667,-6.667l3.024,6.066Z" />
  <path id="CircleX-3"
    d="M21.027,7.694c0.624,1.305 0.973,2.765 0.973,4.306c-0,1.79 -0.471,3.47 -1.296,4.924l-2.964,-5.943l3.287,-3.287Z" />
  <path id="CircleX-4" d="M13.305,2.085c1.823,0.238 3.492,0.967 4.87,2.051l-2.567,2.568l-2.303,-4.619Z" />
</svg>