<svg width="100%" height="100%" viewBox="0 0 24 24" version="1.1" xmlns="http://www.w3.org/2000/svg"
  style="fill-rule:evenodd;clip-rule:evenodd;stroke-linejoin:round;stroke-miterlimit:2;">
  <g id="Xeramiya-CircleX--Favicon-">
    <path
      d="M14.782,23.675c-0.893,0.213 -1.824,0.325 -2.782,0.325c-2.327,-0 -4.501,-0.664 -6.341,-1.813l5.593,-5.593l3.53,7.081Z"
      style="fill:#089;" />
    <path
      d="M22.187,5.659c1.149,1.84 1.813,4.014 1.813,6.341c0,3.718 -1.694,7.043 -4.352,9.245l-4.341,-8.706l6.88,-6.88Z"
      style="fill:#089;" />
    <path
      d="M9.218,0.325c0.893,-0.213 1.824,-0.325 2.782,-0.325c2.327,0 4.501,0.664 6.341,1.813l-5.593,5.593l-3.53,-7.081Z"
      style="fill:#089;" />
    <path
      d="M1.813,18.341c-1.149,-1.84 -1.813,-4.014 -1.813,-6.341c0,-3.718 1.694,-7.043 4.352,-9.245l6.9,13.839l-7.691,-0l-1.748,1.747Z"
      style="fill:#089;" />
  </g>
</svg>