<svg id="uebit-logo" width="100%" height="100%" viewBox="0 0 24 10" version="1.1" xmlns="http://www.w3.org/2000/svg"
  xmlns:xlink="http://www.w3.org/1999/xlink"
  style="fill-rule:evenodd;clip-rule:evenodd;stroke-linejoin:round;stroke-miterlimit:2;">
  <path id="T" d="M18.8,2.106l-0.491,0.984l1.832,0l-2.395,4.804l1.1,-0l2.395,-4.804l1.831,0l0.491,-0.984l-4.763,0Z" />
  <path id="I"
    d="M13.963,6.91l-0.491,0.984l1.633,-0l2.394,-4.804l0.533,0l0.491,-0.984l-1.633,0l-2.395,4.804l-0.532,-0Z" />
  <path id="B2" d="M9.809,7.894l3.388,-0l2.273,-4.558l-1.1,0l-1.782,3.574l-2.288,-0l-0.491,0.984Z" />
  <path id="B1"
    d="M8.434,7.894l1.1,-0l1.259,-2.525l2.288,0l0.491,-0.984l-2.289,-0l0.646,-1.295l3.663,0l0.491,-0.984l-4.763,0l-2.886,5.788Z" />
  <path id="E3" d="M5.092,6.91l-0.491,0.984l3.389,-0l0.49,-0.984l-3.388,-0Z" />
  <path id="E2" d="M6.351,4.385l-0.491,0.984l3.388,0l0.491,-0.984l-3.388,-0Z" />
  <path id="E1" d="M7.487,2.106l-0.491,0.984l3.388,0l0.491,-0.984l-3.388,0Z" />
  <path id="U2" d="M7.212,2.106l-1.1,0l-2.886,5.788l1.1,-0l2.886,-5.788Z" />
  <path id="U1"
    d="M2.449,2.106l-2.012,4.036l1.086,1.752l1.429,-0l0.49,-0.984l-1.429,-0l-0.476,-0.768l2.012,-4.036l-1.1,0Z" />
</svg>